<?xml version="1.0" encoding="UTF-8" standalone="no"?>
<svg
   viewBox="0 0 220.9685 220.96858"
   width="220.96851"
   height="220.96857"
   version="1.1"
   id="svg58"
   xml:space="preserve"
   xmlns="http://www.w3.org/2000/svg"
   xmlns:svg="http://www.w3.org/2000/svg"><desc
     id="desc2">StarNote Unofficial.dxf - scale = 1.000000, origin = (0.000000, 0.000000), method = manual</desc><defs
     id="defs16"><linearGradient
       id="linearGradient11515"><stop
         style="stop-color:#000000;stop-opacity:1;"
         offset="0"
         id="stop11513" /></linearGradient><linearGradient
       id="linearGradient11455"><stop
         style="stop-color:#000000;stop-opacity:1;"
         offset="0"
         id="stop11453" /></linearGradient></defs><g
     id="g56"
     transform="translate(-284.97428,-288.33507)"><g
       id="g9010"
       transform="translate(395.45852,-723.70034)"
       style="fill:#000000;fill-opacity:1"><path
         d="m -101.66929,1122.5197 a 4.1574805,4.1574805 0 0 0 -8.31496,0 4.1574805,4.1574805 0 0 0 8.31496,0 z"
         style="fill:#000000;fill-opacity:1;stroke:#000000"
         id="path9000" /><path
         d="m 4.15748,1016.6929 a 4.15748,4.15748 0 0 0 -8.31496,0 4.15748,4.15748 0 0 0 8.31496,0 z"
         style="fill:#000000;fill-opacity:1;stroke:#000000"
         id="path9002" /><path
         d="m 109.98425,1122.5197 a 4.1574805,4.1574805 0 0 0 -8.31496,0 4.1574805,4.1574805 0 0 0 8.31496,0 z"
         style="fill:#000000;fill-opacity:1;stroke:#000000"
         id="path9004" /><path
         d="m 4.15748,1228.3465 a 4.15748,4.15748 0 0 0 -8.31496,0 4.15748,4.15748 0 0 0 8.31496,0 z"
         style="fill:#000000;fill-opacity:1;stroke:#000000"
         id="path9006" /><path
         d="m -4.47755,1220.2854 a 101.66929,101.66929 0 0 0 -93.288198,-93.2882 0.377953,0.377953 0 0 1 -0.307158,-0.5476 8.692913,8.692913 0 0 0 0,-7.8598 0.377953,0.377953 0 0 1 0.307158,-0.5477 101.66929,101.66929 0 0 0 93.288198,-93.2882 0.377953,0.377953 0 0 1 0.547629,-0.3071 8.692913,8.692913 0 0 0 7.859842,0 0.377953,0.377953 0 0 1 0.547629,0.3071 101.66929,101.66929 0 0 0 93.288198,93.2882 0.377953,0.377953 0 0 1 0.307158,0.5477 8.692913,8.692913 0 0 0 0,7.8598 0.377953,0.377953 0 0 1 -0.307158,0.5476 101.66929,101.66929 0 0 0 -93.288198,93.2882 0.377953,0.377953 0 0 1 -0.547629,0.3072 8.692913,8.692913 0 0 0 -7.859842,0 0.377953,0.377953 0 0 1 -0.547629,-0.3072 z"
         style="fill:#000000;fill-opacity:1;stroke:#000000"
         id="path9008" /></g></g></svg>
